<svg 
    id="logo" 
    xmlns="http://www.w3.org/2000/svg" 
    xmlns:xlink="http://www.w3.org/1999/xlink" 
    version="1.1" 
    x="0px"
    y="0px" 
    width="524.523px" 
    height="121.979px" 
    viewBox="0 0 524.523 121.979" 
    enable-background="new 0 0 524.523 121.979" 
    xml:space="preserve">
    <path id="logo_path" d="M116.612 0.61L90.386 75.261V0.61H74.407L48.792 75.261L47.694 0.244C46.108 0.1 44.5 0 42.8 0 C22.444 0 0 15.5 0 31.714c0 8.8 4.6 11.8 13.1 11.832c-0.122-1.098-1.708-2.074-1.708-8.295 c0-13.417 6.465-22.932 19.761-27.079v83.312h17.931l24.151-62.088v62.088H91.24L125.15 0.61H116.612z M217.616 39.6 c0-4.635-2.927-9.148-8.417-9.148c-5.855 0-10.49 3.903-14.759 7.563l1.585-7.563h-17.565l-3.454 16.3 c-3.401 1.417-6.862 2.369-9.721 2.369c-0.366 0-0.854 0-1.342-0.244c0-12.808-5.123-19.517-15.613-19.517 c-25.127 0-33.422 29.275-33.422 43.303c0 13.9 8.2 19.3 19.5 19.272c15.003 0 27.201-14.149 29.153-36.715 c3.608-0.593 7.071-1.552 10.229-2.81l-8.276 39.038h17.565l9.758-46.353c3.049-2.805 5.245-4.635 8.904-4.635 c3.66 0 0.2 8.1 7.1 8.051C214.811 48.5 217.6 43.9 217.6 39.643z M153.454 55.6 c-1.952 14.394-8.172 25.372-14.149 25.372c-4.635 0-6.221-1.83-6.221-9.88c0-11.954 7.563-34.276 16.223-34.276 c3.171 0 4.4 2 4.6 7.075c-2.196 0.976-3.782 3.171-3.782 6.587C150.16 52.9 150.9 55 153.5 55.622z M318.374 29.885c-6.099 0-10.733 2.195-14.271 5.245l1.952-9.148h-17.565l-9.267 43.668h-0.006 c-2.684 6.343-4.879 10.734-10.246 10.734c-3.781 0-4.757-2.074-4.757-4.513c0-1.342 0.365-2.684 0.609-3.903l1.342-6.099 c0.366-1.585 0.488-3.171 0.488-4.635c0-7.807-4.392-14.271-13.418-14.271c-1.342 0-2.684 0.244-4.025 0.488l24.396-16.955H261.53 l-23.542 18.541l9.148-42.937l-18.053 2.44l-17.687 82.946h17.565l6.343-30.129c3.416-2.805 6.221-4.513 9.026-4.513 c3.172 0 4.4 2.3 4.4 5.855c0 1.342-0.122 2.928-0.488 4.513l-0.976 4.757c-0.488 2.317-0.732 4.391-0.732 6.3 c0 8.9 5.4 13.9 15.4 13.906c3.548 0 8.802-0.836 13.944-6.625l-7.722 36.388l18.419-4.391l6.343-29.763 c1.342 2.3 4.3 4.4 10.4 4.391c23.664 0 30.007-26.591 30.007-43.059C333.256 34.6 326.7 29.9 318.4 29.885z M299.468 81.604c-2.806 0-4.147-1.464-4.636-2.805l7.197-34.154c2.317-3.903 5.733-5.977 8.417-5.977 c2.195 0 6.1 0.7 6.1 10.125C316.545 60.3 312.3 81.6 299.5 81.604z M496.224 70.503c0-1.098 0.122-2.439 0.244-3.659 c14.638-0.854 28.056-11.588 28.056-25.738c0-6.099-2.562-11.71-13.418-11.71c-24.26 0-32.445 27.667-32.912 42.1 c-5.526 6.017-11.158 10.445-19.905 10.445c-5.855 0-8.783-1.952-8.783-10.247c0-13.54 7.929-35.861 15.613-35.861 c2.318 0 3.4 2 3.4 5.001c0 2.074-0.488 4.513-1.464 7.197c1.464 1 2.9 1.5 4.3 1.5 c3.537 0 6.465-2.927 6.465-8.904c0-5.611-2.684-11.222-13.54-11.222c-24.762 0-32.813 29.275-32.813 43.4 c0 0.3 0 0.6 0 0.977c-1.925 4.19-4.7 7.318-8.33 7.318c-3.415 0-5.001-1.83-5.001-5.245 c0-1.098 0.122-2.317 0.488-3.903l8.782-41.473H409.86l-1.341 6.465v-0.854c0-3.537-2.928-6.221-9.881-6.221 c-21.225 0-31.349 26.225-31.349 42.692c0 0.3 0 0.6 0 0.833c-2.224 4.142-5.708 6.974-9.423 7 c-3.415 0-5.001-1.098-5.001-4.513c0-1.098 0.122-2.317 0.488-3.903l14.027-65.869l-18.053 2.44L336.307 69.7 c-0.61 2.927-0.976 5.611-0.976 7.928c0 10.2 5.7 14.6 13.1 14.638c5.048 0 13.316-1.586 20.035-11.27 c2.463 8.2 8.7 11.3 15.1 11.27c8.66 0 14.394-5.611 18.175-11.222c0.731 7.3 5.1 11.2 12 11.2 c5.022 0 12.598-1.57 18.995-11.127c2.539 7.8 9 11.1 17.8 11.127c12.396 0 21.371-6.626 28.02-14.758 c1.558 10.4 8.6 14.8 18.6 14.758c9.758 0 18.541-4.147 21.103-18.053c-3.903 3.415-9.759 6.465-14.394 6.5 C499.518 80.6 496.2 78.2 496.2 70.503z M512.081 35.862c2.317 0 3 2 3 5 c0 10.246-8.295 19.639-17.809 20.126C499.884 49.4 506 35.9 512.1 35.862z M401.566 69.7 c-1.464 7.075-6.587 10.734-10.124 10.734c-2.196 0-6.1-0.122-6.1-9.514c0-11.466 6.709-33.422 17.077-33.422 c3.903 0 5 3.2 5 4.635L401.566 69.65z"

/></svg>